Coordinates
version=1
nRows=54
nColumns=12
inDegrees=yes

Units are S.I. units (second, meters, Newtons, ...)
Angles are in degrees

endheader
time	SC_y	SC_z	SC_x	AC_y	AC_z	AC_x	GH_y	GH_z	GH_yy	EL_x	PS_y
       0.0              -33.37          17.15          81.56           43.8          8.138         -11.62         -78.06         -12.64          41.45          31.79          86.37
  0.008017              -33.37          17.15          81.55           43.8          8.137         -11.62         -78.03         -12.64          41.43          31.79          86.37
   0.01603              -33.37          17.15          81.54           43.8          8.136         -11.62         -77.99         -12.63          41.41           31.8          86.36
   0.02405              -33.36          17.15          81.54          43.81          8.135         -11.61         -77.95         -12.63          41.39           31.8          86.35
   0.03207              -33.36          17.15          81.53          43.81          8.133         -11.61         -77.91         -12.62          41.37          31.81          86.34
   0.04009              -33.36          17.16          81.52          43.81          8.132          -11.6         -77.87         -12.62          41.34          31.82          86.34
    0.0481              -33.35          17.16          81.51          43.82           8.13          -11.6         -77.82         -12.61          41.31          31.82          86.33
   0.05612              -33.35          17.16           81.5          43.82          8.128          -11.6         -77.77         -12.61          41.28          31.83          86.32
   0.06414              -33.34          17.16          81.49          43.83          8.126         -11.59         -77.72          -12.6          41.25          31.84          86.31
   0.07216              -33.34          17.17          81.48          43.83          8.124         -11.59         -77.66         -12.59          41.22          31.84           86.3
   0.08017              -33.34          17.17          81.47          43.84          8.122         -11.58          -77.6         -12.59          41.18          31.85          86.28
   0.08819              -33.33          17.17          81.46          43.84           8.12         -11.57         -77.53         -12.58          41.14          31.86          86.27
   0.09621              -33.32          17.17          81.44          43.85          8.117         -11.57         -77.46         -12.57           41.1          31.87          86.26
    0.1042              -33.32          17.18          81.43          43.86          8.115         -11.56         -77.38         -12.56          41.06          31.88          86.24
    0.1122              -33.31          17.18          81.42          43.86          8.112         -11.55         -77.29         -12.55          41.01          31.89          86.23
    0.1203              -33.31          17.19           81.4          43.87          8.109         -11.54          -77.2         -12.54          40.96           31.9          86.21
    0.1283               -33.3          17.19          81.38          43.88          8.105         -11.54          -77.1         -12.53           40.9          31.91          86.19
    0.1363              -33.29           17.2          81.36          43.89          8.101         -11.53         -76.99         -12.52          40.83          31.93          86.17
    0.1443              -33.28           17.2          81.34           43.9          8.097         -11.51         -76.88         -12.51          40.77          31.94          86.15
    0.1523              -33.27          17.21          81.31          43.91          8.093          -11.5         -76.75         -12.49          40.69          31.96          86.12
    0.1603              -33.26          17.21          81.29          43.92          8.088         -11.49         -76.61         -12.48          40.61          31.98           86.1
    0.1684              -33.25          17.22          81.26          43.94          8.083         -11.48         -76.45         -12.46          40.52           32.0          86.07
    0.1764              -33.23          17.23          81.23          43.95          8.077         -11.46         -76.28         -12.44          40.42          32.02          86.04
    0.1844              -33.22          17.24          81.19          43.97           8.07         -11.44         -76.08         -12.42          40.31          32.05           86.0
    0.1924               -33.2          17.25          81.15          43.98          8.063         -11.42         -75.87          -12.4          40.18          32.08          85.96
    0.2004              -33.18          17.26          81.11          44.01          8.055          -11.4         -75.63         -12.37          40.05          32.11          85.91
    0.2084              -33.16          17.27          81.06          44.03          8.045         -11.38         -75.37         -12.34          39.89          32.14          85.86
    0.2165              -33.14          17.28          81.01          44.05          8.035         -11.35         -75.07         -12.31          39.72          32.18          85.81
    0.2245              -33.11           17.3          80.94          44.08          8.023         -11.32         -74.73         -12.27          39.52          32.22          85.74
    0.2325              -33.08          17.31          80.87          44.12           8.01         -11.28         -74.35         -12.23           39.3          32.27          85.67
    0.2405              -33.05          17.33          80.79          44.15          7.995         -11.24         -73.91         -12.18          39.05          32.33          85.59
    0.2485              -33.01          17.36           80.7           44.2          7.978          -11.2         -73.41         -12.13          38.76           32.4          85.49
    0.2566              -32.97          17.38           80.6          44.25          7.958         -11.15         -72.83         -12.06          38.42          32.47          85.38
    0.2646              -32.92          17.41          80.47          44.31          7.934         -11.08         -72.15         -11.99          38.03          32.56          85.25
    0.2726              -32.85          17.45          80.33          44.37          7.907         -11.01         -71.36          -11.9          37.57          32.66           85.1
    0.2806              -32.78          17.49          80.16          44.45          7.875         -10.93         -70.43          -11.8          37.03          32.78          84.93
    0.2886               -32.7          17.54          79.95          44.55          7.837         -10.83         -69.33         -11.68          36.39          32.93          84.72
    0.2966              -32.59           17.6          79.71          44.66          7.791         -10.71          -68.0         -11.53          35.62           33.1          84.47
    0.3047              -32.47          17.67          79.42           44.8          7.736         -10.56          -66.4         -11.36          34.69          33.31          84.16
    0.3127              -32.32          17.76          79.06          44.97          7.669         -10.38         -64.44         -11.14          33.56          33.57          83.79
    0.3207              -32.13          17.87          78.61          45.18          7.585         -10.16         -62.02         -10.88          32.16          33.88          83.34
    0.3287               -31.9           18.0          78.06          45.44          7.481         -9.888         -59.01         -10.55          30.41          34.27          82.77
    0.3367              -31.61          18.17          77.36          45.77           7.35         -9.543         -55.21         -10.13          28.21          34.77          82.05
    0.3447              -31.23          18.39          76.48          46.18          7.184         -9.103         -50.38         -9.601          25.41           35.4          81.13
    0.3528              -30.76          18.67          75.34          46.71          6.971         -8.541          -44.2         -8.923          21.83          36.21          79.96
    0.3608              -30.15          19.02          73.89           47.4          6.697          -7.82         -36.27         -8.052          17.24          37.24          78.46
    0.3688              -29.36          19.48          72.03          48.27          6.348         -6.898         -26.15         -6.941          11.37          38.56          76.54
    0.3768              -28.38          20.05          69.69          49.37          5.909         -5.739         -13.41         -5.543          3.988          40.22          74.13
    0.3848              -27.18          20.75          66.85           50.7          5.374         -4.327          2.109         -3.839         -5.006          42.24          71.19
    0.3928              -25.79          21.55          63.55          52.25          4.753          -2.69           20.1         -1.865         -15.43          44.59          67.79
    0.4009              -24.29          22.43          59.97          53.93          4.082         -0.917          39.58          0.273         -26.72          47.13           64.1
    0.4089              -22.79           23.3           56.4          55.61           3.41         0.8556          59.05          2.411         -38.01          49.67          60.41
    0.4169               -21.4          24.11           53.1          57.16           2.79          2.493          77.04          4.385         -48.43          52.02          57.01
    0.4249               -20.2           24.8          50.25           58.5          2.254          3.905          92.56          6.089         -57.42          54.04          54.07
